<?xml version="1.0" encoding="UTF-8" standalone="no"?>
<!DOCTYPE svg PUBLIC "-//W3C//DTD SVG 1.1//EN"
 "http://www.w3.org/Graphics/SVG/1.1/DTD/svg11.dtd">
<!-- Generated by graphviz version 2.50.0 (20211204.2007)
 -->
<!-- Title: tree Pages: 1 -->
<svg width="278pt" height="188pt"
 viewBox="0.00 0.00 278.00 188.00" xmlns="http://www.w3.org/2000/svg" xmlns:xlink="http://www.w3.org/1999/xlink">
<g id="graph0" class="graph" transform="scale(1 1) rotate(0) translate(4 184)">
<title>tree</title>
<polygon fill="white" stroke="transparent" points="-4,4 -4,-184 274,-184 274,4 -4,4"/>
<!-- root -->
<g id="node1" class="node">
<title>root</title>
<ellipse fill="none" stroke="black" cx="135" cy="-162" rx="27" ry="18"/>
<text text-anchor="middle" x="135" y="-158.3" font-family="Times,serif" font-size="14.00">root</text>
</g>
<!-- a -->
<g id="node2" class="node">
<title>a</title>
<ellipse fill="none" stroke="black" cx="99" cy="-90" rx="27" ry="18"/>
<text text-anchor="middle" x="99" y="-86.3" font-family="Times,serif" font-size="14.00">a</text>
</g>
<!-- root&#45;&gt;a -->
<g id="edge1" class="edge">
<title>root&#45;&gt;a</title>
<path fill="none" stroke="black" d="M126.65,-144.76C122.29,-136.28 116.85,-125.71 111.96,-116.2"/>
<polygon fill="black" stroke="black" points="114.99,-114.44 107.3,-107.15 108.77,-117.64 114.99,-114.44"/>
</g>
<!-- b -->
<g id="node5" class="node">
<title>b</title>
<ellipse fill="none" stroke="black" cx="171" cy="-90" rx="27" ry="18"/>
<text text-anchor="middle" x="171" y="-86.3" font-family="Times,serif" font-size="14.00">b</text>
</g>
<!-- root&#45;&gt;b -->
<g id="edge2" class="edge">
<title>root&#45;&gt;b</title>
<path fill="none" stroke="black" d="M143.35,-144.76C147.71,-136.28 153.15,-125.71 158.04,-116.2"/>
<polygon fill="black" stroke="black" points="161.23,-117.64 162.7,-107.15 155.01,-114.44 161.23,-117.64"/>
</g>
<!-- aa -->
<g id="node3" class="node">
<title>aa</title>
<ellipse fill="none" stroke="black" cx="27" cy="-18" rx="27" ry="18"/>
<text text-anchor="middle" x="27" y="-14.3" font-family="Times,serif" font-size="14.00">aa</text>
</g>
<!-- a&#45;&gt;aa -->
<g id="edge3" class="edge">
<title>a&#45;&gt;aa</title>
<path fill="none" stroke="black" d="M84.43,-74.83C74.25,-64.94 60.48,-51.55 48.97,-40.36"/>
<polygon fill="black" stroke="black" points="51.41,-37.85 41.8,-33.38 46.53,-42.87 51.41,-37.85"/>
</g>
<!-- ab -->
<g id="node4" class="node">
<title>ab</title>
<ellipse fill="none" stroke="black" cx="99" cy="-18" rx="27" ry="18"/>
<text text-anchor="middle" x="99" y="-14.3" font-family="Times,serif" font-size="14.00">ab</text>
</g>
<!-- a&#45;&gt;ab -->
<g id="edge4" class="edge">
<title>a&#45;&gt;ab</title>
<path fill="none" stroke="black" d="M99,-71.7C99,-63.98 99,-54.71 99,-46.11"/>
<polygon fill="black" stroke="black" points="102.5,-46.1 99,-36.1 95.5,-46.1 102.5,-46.1"/>
</g>
<!-- ba -->
<g id="node6" class="node">
<title>ba</title>
<ellipse fill="none" stroke="black" cx="171" cy="-18" rx="27" ry="18"/>
<text text-anchor="middle" x="171" y="-14.3" font-family="Times,serif" font-size="14.00">ba</text>
</g>
<!-- b&#45;&gt;ba -->
<g id="edge5" class="edge">
<title>b&#45;&gt;ba</title>
<path fill="none" stroke="black" d="M171,-71.7C171,-63.98 171,-54.71 171,-46.11"/>
<polygon fill="black" stroke="black" points="174.5,-46.1 171,-36.1 167.5,-46.1 174.5,-46.1"/>
</g>
<!-- bb -->
<g id="node7" class="node">
<title>bb</title>
<ellipse fill="none" stroke="black" cx="243" cy="-18" rx="27" ry="18"/>
<text text-anchor="middle" x="243" y="-14.3" font-family="Times,serif" font-size="14.00">bb</text>
</g>
<!-- b&#45;&gt;bb -->
<g id="edge6" class="edge">
<title>b&#45;&gt;bb</title>
<path fill="none" stroke="black" d="M185.57,-74.83C195.75,-64.94 209.52,-51.55 221.03,-40.36"/>
<polygon fill="black" stroke="black" points="223.47,-42.87 228.2,-33.38 218.59,-37.85 223.47,-42.87"/>
</g>
</g>
</svg>
